<svg width="500" height="500" xmlns="http://www.w3.org/2000/svg">

 <g>
  <title>Layer 1</title>
  <g>
   <path fill="#372579" d="m249.96201,449.96888c-21.138,0 -42.276,0 -63.413,0c-7.497,0 -14.87,-1.376 -21.875,-4.378c-9.217,-3.877 -16.836,-9.88 -22.981,-17.759c-20.769,-26.64 -41.661,-53.154 -62.553,-79.794c-5.53,-7.004 -11.06,-14.133 -16.59,-21.137c-9.094,-11.756 -13.396,-25.013 -12.412,-39.896c0.368,-5.628 1.72,-11.257 2.949,-16.76c8.971,-39.396 17.82,-78.668 26.545,-117.814c4.178,-18.635 14.624,-32.143 31.461,-40.397c38.096,-18.635 76.07,-37.396 114.167,-56.031c16.468,-8.004 33.058,-8.004 49.526,0c38.097,18.635 76.317,37.271 114.413,56.031c16.591,8.129 27.037,21.637 31.092,39.897c9.463,41.898 18.803,83.796 28.143,125.693c3.932,17.885 0.491,34.269 -10.692,48.652c-26.545,34.144 -53.213,68.162 -80.003,102.056c-11.306,14.258 -26.299,21.387 -44.242,21.512c-21.137,0.25 -42.275,0.125 -63.535,0.125zm0,-36.395c15.484,0 31.092,0 46.576,0c3.318,0 6.636,-0.25 9.954,-0.876c14.256,-2.626 25.808,-9.755 34.779,-21.261c7.62,-9.756 15.239,-19.386 22.735,-29.141c11.552,-14.758 23.227,-29.516 34.779,-44.399c11.183,-14.383 15.116,-30.642 11.183,-48.527c-6.636,-30.767 -13.641,-61.534 -20.646,-92.301c-4.178,-18.259 -14.501,-31.642 -31.092,-39.896c-27.528,-13.633 -55.179,-27.14 -82.829,-40.648c-16.96,-8.254 -33.919,-8.254 -50.878,0c-27.405,13.508 -54.933,27.015 -82.461,40.523c-16.714,8.254 -27.16,21.636 -31.338,40.021c-6.268,27.766 -12.535,55.531 -18.68,83.296c-1.229,5.503 -2.581,10.881 -3.072,16.509c-1.352,15.634 3.195,29.516 12.904,41.773c18.802,23.888 37.605,47.776 56.285,71.789c12.043,15.509 27.65,23.138 47.068,23.138c14.87,0 29.74,0 44.733,0z"/>
   <defs transform="translate(-49) translate(0, -50) translate(-1) translate(-100) translate(0, 24) translate(14.0501) translate(10) translate(10) translate(10) translate(10) translate(10) translate(10) translate(10) translate(10) translate(10) translate(10) translate(10) translate(10) translate(10) translate(10) translate(10) translate(10) translate(10) translate(10) translate(10) translate(10) translate(10) translate(10) translate(10) translate(10) translate(10) translate(10) translate(10) translate(10) translate(10) translate(10) translate(10) translate(10) translate(10) translate(10) translate(10) translate(10) translate(10) translate(10) translate(10) translate(10) translate(10) translate(10) translate(10) translate(10) translate(10) translate(10) translate(10) translate(10) translate(10) translate(10) translate(10) translate(10) translate(10) translate(10) translate(10) translate(10) translate(10) translate(10) translate(10) translate(10) translate(10) translate(10) translate(10) translate(10) translate(10) translate(10) translate(10) translate(10) translate(10) translate(10) translate(10) translate(10) translate(10) translate(10) translate(10) translate(10) translate(10) translate(10) translate(10) translate(10) translate(10) translate(10) translate(10) translate(10) translate(1) translate(1) translate(1) translate(1) translate(1) translate(1) translate(1) translate(1) translate(1) translate(1) translate(-724, -28) translate(306, 4) translate(-446.05) translate(0, -100)">
    <clipPath id="svg_1">
     <rect x="529.94992" y="217.94989" transform="translate(-724, -28)" fill="white" height="172.1" width="822"/>
    </clipPath>
   </defs>
  </g>
 </g>
</svg>